<?xml version="1.0" encoding="utf-8"?>
<!-- Generator: Adobe Illustrator 24.0.3, SVG Export Plug-In . SVG Version: 6.00 Build 0)  -->
<svg version="1.1" id="Capa_1" xmlns="http://www.w3.org/2000/svg" xmlns:xlink="http://www.w3.org/1999/xlink" x="0px" y="0px"
	 viewBox="0 0 142 154.1" style="enable-background:new 0 0 142 154.1;" xml:space="preserve">
<style type="text/css">
	.st0{fill:#198C65;}
</style>
<g>
	<rect x="126.7" y="124.2" class="st0" width="6.3" height="23.4"/>
	<polyline class="st0" points="106.4,124.2 106.4,144.4 109.5,144.4 	"/>
	<polygon class="st0" points="109.5,147.5 103.3,147.5 103.2,124.2 109.5,124.2 	"/>
	<polygon class="st0" points="86,147.5 79.8,147.5 79.8,124.2 86.1,124.2 	"/>
	<path class="st0" d="M126.7,53.8l0-0.7c0-16.5-13.9-30.8-33.6-37c8.5,8.3,14.5,21.4,16,37h0c0,0.2,0.1,0.5,0.1,0.7h-6.6
		c-1.8-19-11.2-34.3-23.3-39.3c5.2,11.8,6,33.7,6.2,39.3l-6.2-0.1C78.5,27,73.3,14.1,71,12.9c-3.1,1.4-8.6,18.5-8.6,47.6v87h-6.3
		v-87c0-13.9,1.5-34.7,6.5-46c-0.1,0-0.2,0.1-0.4,0.2c-0.3,0.1-0.5,0.2-0.8,0.3c-0.5,0.2-0.9,0.5-1.4,0.7c-0.1,0-0.1,0.1-0.2,0.1
		c-0.2,0.1-0.4,0.2-0.6,0.4c-1.7,1-3.3,2.2-4.9,3.6c-0.2,0.2-0.4,0.3-0.6,0.5c-0.3,0.3-0.5,0.5-0.8,0.8c-0.2,0.2-0.4,0.4-0.6,0.6
		c-1,1.1-1.9,2.2-2.8,3.4c-0.1,0.2-0.2,0.3-0.3,0.5c-1.1,1.5-2.1,3-3,4.7c-0.2,0.3-0.3,0.5-0.4,0.8c-0.1,0.1-0.1,0.2-0.2,0.3
		c-0.3,0.5-0.5,1-0.7,1.5c0,0.1-0.1,0.2-0.1,0.3c-0.1,0.3-0.2,0.5-0.4,0.8c-0.1,0.3-0.3,0.6-0.4,1c-0.1,0.3-0.3,0.6-0.4,1
		c-0.1,0.3-0.2,0.5-0.3,0.8c0,0.1-0.1,0.2-0.1,0.3c-0.2,0.6-0.4,1.1-0.6,1.7c0,0.1-0.1,0.2-0.1,0.2c-0.1,0.3-0.2,0.7-0.3,1
		c-0.1,0.3-0.2,0.7-0.3,1c-0.4,1.2-0.7,2.3-1,3.5c-0.1,0.3-0.1,0.5-0.2,0.8c-0.1,0.3-0.1,0.5-0.2,0.8c0,0.2-0.1,0.4-0.1,0.7
		c-0.2,1-0.4,2-0.5,3.1c-0.1,0.8-0.2,1.5-0.3,2.3c-0.1,0.4-0.1,0.8-0.1,1.2c0,0.2,0,0.3,0,0.5c-0.1,0.6-0.1,1.1-0.1,1.7
		c0,0.3,0,0.7-0.1,1c0,0.3,0,0.6-0.1,1c0,0.3,0,0.5,0,0.8c0,0.4,0,0.7,0,1.1c0,0.4,0,0.8,0,1.2v87h-6.3l0-87c0-1.2,0-2.5,0.1-3.7
		c0-0.3,0-0.6,0.1-1c0-0.2,0-0.5,0-0.7c0.1-1.5,0.2-2.9,0.4-4.3c0-0.3,0.1-0.6,0.1-0.9c0-0.3,0.1-0.6,0.1-1c0.2-1.1,0.4-2.2,0.6-3.3
		c0.1-0.2,0.1-0.5,0.2-0.7c0.1-0.3,0.1-0.5,0.2-0.8c0.4-1.7,0.8-3.4,1.3-5c0.1-0.3,0.2-0.7,0.3-1c0.1-0.3,0.2-0.6,0.3-1
		c0.1-0.4,0.3-0.8,0.4-1.2c0.4-1.2,0.9-2.4,1.4-3.5c0.1-0.3,0.3-0.6,0.4-0.9c0.2-0.3,0.3-0.7,0.5-1c0.1-0.3,0.3-0.5,0.4-0.8
		c0.1-0.2,0.2-0.4,0.3-0.7c0.2-0.3,0.4-0.7,0.5-1c0.2-0.4,0.5-0.9,0.7-1.3c0.2-0.3,0.4-0.7,0.6-1c0.1-0.2,0.2-0.4,0.3-0.6
		c0.4-0.7,0.8-1.3,1.2-1.9c0.1-0.1,0.2-0.3,0.3-0.4c0.2-0.3,0.4-0.6,0.6-0.9c0,0,0-0.1,0.1-0.1c0.3-0.4,0.5-0.7,0.8-1.1
		c0.3-0.4,0.6-0.7,0.9-1.1c0.2-0.3,0.4-0.5,0.7-0.8c0-0.1,0.1-0.1,0.1-0.2c0.2-0.3,0.4-0.5,0.7-0.8c0,0,0,0,0.1-0.1
		c0.2-0.2,0.4-0.5,0.6-0.7c0.2-0.2,0.4-0.4,0.6-0.7c0.3-0.3,0.6-0.6,0.9-0.9c-20.1,6.1-34.2,20.5-34.2,37.2l0,94.4H9V53.2
		C9,27.5,36.8,6.6,71,6.6h0L71,7l0,0.2V6.9l0-0.3c0.1,0,0.1,0,0.2,0v0c34,0.1,61.7,21.6,61.7,47.2L126.7,53.8z"/>
	<path class="st0" d="M71,6.6v0.7L71,7L71,6.6C71,6.6,71,6.6,71,6.6z"/>
	<polygon class="st0" points="71,6.9 71,7.3 71,7 	"/>
	<polygon class="st0" points="32.7,147.5 32.7,147.5 32.7,60.6 	"/>
	<polygon class="st0" points="39,147.5 39,147.5 39,60.6 	"/>
</g>
</svg>
